<?xml version="1.0" encoding="utf-8"?>
<svg xmlns="http://www.w3.org/2000/svg">
<symbol id="alarm" viewBox="0 0 20 20">
<path d="M16.8 15.101c-1.144-0.859-1.8-2.172-1.8-3.601v-3c0-2.513-1.694-4.638-4-5.292l-0-0.708c0-0.827-0.673-1.5-1.5-1.5s-1.5 0.673-1.5 1.5v0.708c-2.306 0.655-4 2.779-4 5.292v3c0 1.429-0.656 2.741-1.8 3.601-0.172 0.129-0.242 0.354-0.174 0.558s0.259 0.342 0.474 0.342h4.55c-0.033 0.164-0.051 0.331-0.051 0.5 0 1.378 1.122 2.5 2.5 2.5s2.5-1.122 2.5-2.5c0-0.168-0.017-0.336-0.050-0.5h4.55c0.215 0 0.406-0.138 0.474-0.342s-0.002-0.429-0.174-0.558zM9 2.5c0-0.276 0.224-0.5 0.5-0.5s0.5 0.224 0.5 0.5v0.523c-0.165-0.015-0.331-0.023-0.5-0.023s-0.335 0.008-0.5 0.023v-0.523zM11 16.5c0 0.827-0.673 1.5-1.5 1.5s-1.5-0.673-1.5-1.5c0-0.171 0.030-0.34 0.086-0.5h2.828c0.056 0.16 0.086 0.329 0.086 0.5zM3.742 15c0.255-0.309 0.477-0.646 0.659-1.001 0.398-0.778 0.599-1.619 0.599-2.499v-3c0-2.481 2.019-4.5 4.5-4.5s4.5 2.019 4.5 4.5v3c0 0.88 0.202 1.721 0.599 2.499 0.182 0.356 0.404 0.692 0.659 1.001h-11.517z"/>

</symbol>
<symbol id="arrow-right" viewBox="0 0 20 20">
<path d="M19.354 10.146l-6-6c-0.195-0.195-0.512-0.195-0.707 0s-0.195 0.512 0 0.707l5.146 5.146h-16.293c-0.276 0-0.5 0.224-0.5 0.5s0.224 0.5 0.5 0.5h16.293l-5.146 5.146c-0.195 0.195-0.195 0.512 0 0.707 0.098 0.098 0.226 0.146 0.354 0.146s0.256-0.049 0.354-0.146l6-6c0.195-0.195 0.195-0.512 0-0.707z"/>

</symbol>
<symbol id="briefcase" viewBox="0 0 20 20">
<path d="M18.5 5h-4.5v-1.5c0-0.827-0.673-1.5-1.5-1.5h-5c-0.827 0-1.5 0.673-1.5 1.5v1.5h-4.5c-0.827 0-1.5 0.673-1.5 1.5v11c0 0.827 0.673 1.5 1.5 1.5h17c0.827 0 1.5-0.673 1.5-1.5v-11c0-0.827-0.673-1.5-1.5-1.5zM7 3.5c0-0.276 0.224-0.5 0.5-0.5h5c0.276 0 0.5 0.224 0.5 0.5v1.5h-6v-1.5zM1.5 6h17c0.276 0 0.5 0.224 0.5 0.5v7.5h-2v-0.5c0-0.276-0.224-0.5-0.5-0.5h-2c-0.276 0-0.5 0.224-0.5 0.5v0.5h-8v-0.5c0-0.276-0.224-0.5-0.5-0.5h-2c-0.276 0-0.5 0.224-0.5 0.5v0.5h-2v-7.5c0-0.276 0.224-0.5 0.5-0.5zM16 14v1h-1v-1h1zM5 14v1h-1v-1h1zM18.5 18h-17c-0.276 0-0.5-0.224-0.5-0.5v-2.5h2v0.5c0 0.276 0.224 0.5 0.5 0.5h2c0.276 0 0.5-0.224 0.5-0.5v-0.5h8v0.5c0 0.276 0.224 0.5 0.5 0.5h2c0.276 0 0.5-0.224 0.5-0.5v-0.5h2v2.5c0 0.276-0.224 0.5-0.5 0.5z"/>

</symbol>
<symbol id="burger" viewBox="0 0 16 16">
<path d="M1 3h14v3h-14zM1 7h14v3h-14zM1 11h14v3h-14z"/>

</symbol>
<symbol id="calendar-full" viewBox="0 0 20 20">
<path d="M18.5 2h-2.5v-0.5c0-0.276-0.224-0.5-0.5-0.5s-0.5 0.224-0.5 0.5v0.5h-10v-0.5c0-0.276-0.224-0.5-0.5-0.5s-0.5 0.224-0.5 0.5v0.5h-2.5c-0.827 0-1.5 0.673-1.5 1.5v14c0 0.827 0.673 1.5 1.5 1.5h17c0.827 0 1.5-0.673 1.5-1.5v-14c0-0.827-0.673-1.5-1.5-1.5zM1.5 3h2.5v1.5c0 0.276 0.224 0.5 0.5 0.5s0.5-0.224 0.5-0.5v-1.5h10v1.5c0 0.276 0.224 0.5 0.5 0.5s0.5-0.224 0.5-0.5v-1.5h2.5c0.276 0 0.5 0.224 0.5 0.5v2.5h-18v-2.5c0-0.276 0.224-0.5 0.5-0.5zM18.5 18h-17c-0.276 0-0.5-0.224-0.5-0.5v-10.5h18v10.5c0 0.276-0.224 0.5-0.5 0.5z"/>
<path d="M7.5 10h-1c-0.276 0-0.5-0.224-0.5-0.5s0.224-0.5 0.5-0.5h1c0.276 0 0.5 0.224 0.5 0.5s-0.224 0.5-0.5 0.5z"/>
<path d="M10.5 10h-1c-0.276 0-0.5-0.224-0.5-0.5s0.224-0.5 0.5-0.5h1c0.276 0 0.5 0.224 0.5 0.5s-0.224 0.5-0.5 0.5z"/>
<path d="M13.5 10h-1c-0.276 0-0.5-0.224-0.5-0.5s0.224-0.5 0.5-0.5h1c0.276 0 0.5 0.224 0.5 0.5s-0.224 0.5-0.5 0.5z"/>
<path d="M16.5 10h-1c-0.276 0-0.5-0.224-0.5-0.5s0.224-0.5 0.5-0.5h1c0.276 0 0.5 0.224 0.5 0.5s-0.224 0.5-0.5 0.5z"/>
<path d="M4.5 12h-1c-0.276 0-0.5-0.224-0.5-0.5s0.224-0.5 0.5-0.5h1c0.276 0 0.5 0.224 0.5 0.5s-0.224 0.5-0.5 0.5z"/>
<path d="M7.5 12h-1c-0.276 0-0.5-0.224-0.5-0.5s0.224-0.5 0.5-0.5h1c0.276 0 0.5 0.224 0.5 0.5s-0.224 0.5-0.5 0.5z"/>
<path d="M10.5 12h-1c-0.276 0-0.5-0.224-0.5-0.5s0.224-0.5 0.5-0.5h1c0.276 0 0.5 0.224 0.5 0.5s-0.224 0.5-0.5 0.5z"/>
<path d="M13.5 12h-1c-0.276 0-0.5-0.224-0.5-0.5s0.224-0.5 0.5-0.5h1c0.276 0 0.5 0.224 0.5 0.5s-0.224 0.5-0.5 0.5z"/>
<path d="M16.5 12h-1c-0.276 0-0.5-0.224-0.5-0.5s0.224-0.5 0.5-0.5h1c0.276 0 0.5 0.224 0.5 0.5s-0.224 0.5-0.5 0.5z"/>
<path d="M4.5 14h-1c-0.276 0-0.5-0.224-0.5-0.5s0.224-0.5 0.5-0.5h1c0.276 0 0.5 0.224 0.5 0.5s-0.224 0.5-0.5 0.5z"/>
<path d="M7.5 14h-1c-0.276 0-0.5-0.224-0.5-0.5s0.224-0.5 0.5-0.5h1c0.276 0 0.5 0.224 0.5 0.5s-0.224 0.5-0.5 0.5z"/>
<path d="M10.5 14h-1c-0.276 0-0.5-0.224-0.5-0.5s0.224-0.5 0.5-0.5h1c0.276 0 0.5 0.224 0.5 0.5s-0.224 0.5-0.5 0.5z"/>
<path d="M13.5 14h-1c-0.276 0-0.5-0.224-0.5-0.5s0.224-0.5 0.5-0.5h1c0.276 0 0.5 0.224 0.5 0.5s-0.224 0.5-0.5 0.5z"/>
<path d="M16.5 14h-1c-0.276 0-0.5-0.224-0.5-0.5s0.224-0.5 0.5-0.5h1c0.276 0 0.5 0.224 0.5 0.5s-0.224 0.5-0.5 0.5z"/>
<path d="M4.5 16h-1c-0.276 0-0.5-0.224-0.5-0.5s0.224-0.5 0.5-0.5h1c0.276 0 0.5 0.224 0.5 0.5s-0.224 0.5-0.5 0.5z"/>
<path d="M7.5 16h-1c-0.276 0-0.5-0.224-0.5-0.5s0.224-0.5 0.5-0.5h1c0.276 0 0.5 0.224 0.5 0.5s-0.224 0.5-0.5 0.5z"/>
<path d="M10.5 16h-1c-0.276 0-0.5-0.224-0.5-0.5s0.224-0.5 0.5-0.5h1c0.276 0 0.5 0.224 0.5 0.5s-0.224 0.5-0.5 0.5z"/>
<path d="M13.5 16h-1c-0.276 0-0.5-0.224-0.5-0.5s0.224-0.5 0.5-0.5h1c0.276 0 0.5 0.224 0.5 0.5s-0.224 0.5-0.5 0.5z"/>
<path d="M16.5 16h-1c-0.276 0-0.5-0.224-0.5-0.5s0.224-0.5 0.5-0.5h1c0.276 0 0.5 0.224 0.5 0.5s-0.224 0.5-0.5 0.5z"/>

</symbol>
<symbol id="checkmark" viewBox="0 0 16 16">
<path d="M13.5 2l-7.5 7.5-3.5-3.5-2.5 2.5 6 6 10-10z"/>

</symbol>
<symbol id="code" viewBox="0 0 20 20">
<path d="M5 15c-0.128 0-0.256-0.049-0.354-0.146l-4-4c-0.195-0.195-0.195-0.512 0-0.707l4-4c0.195-0.195 0.512-0.195 0.707 0s0.195 0.512 0 0.707l-3.646 3.646 3.646 3.646c0.195 0.195 0.195 0.512 0 0.707-0.098 0.098-0.226 0.146-0.354 0.146z"/>
<path d="M15 15c-0.128 0-0.256-0.049-0.354-0.146-0.195-0.195-0.195-0.512 0-0.707l3.646-3.646-3.646-3.646c-0.195-0.195-0.195-0.512 0-0.707s0.512-0.195 0.707 0l4 4c0.195 0.195 0.195 0.512 0 0.707l-4 4c-0.098 0.098-0.226 0.146-0.354 0.146z"/>
<path d="M7.5 15c-0.091 0-0.182-0.025-0.265-0.076-0.234-0.146-0.305-0.455-0.159-0.689l5-8c0.146-0.234 0.455-0.305 0.689-0.159s0.305 0.455 0.159 0.689l-5 8c-0.095 0.152-0.258 0.235-0.424 0.235z"/>

</symbol>
<symbol id="codepen" viewBox="0 0 16 16">
<path d="M14.777 5.751l-7-4.667c-0.168-0.112-0.387-0.112-0.555 0l-7 4.667c-0.139 0.093-0.223 0.249-0.223 0.416v4.667c0 0.167 0.084 0.323 0.223 0.416l7 4.667c0.084 0.056 0.181 0.084 0.277 0.084s0.193-0.028 0.277-0.084l7-4.667c0.139-0.093 0.223-0.249 0.223-0.416v-4.667c0-0.167-0.084-0.323-0.223-0.416zM7.5 10.232l-2.599-1.732 2.599-1.732 2.599 1.732-2.599 1.732zM8 5.899v-3.465l5.599 3.732-2.599 1.732-3-2zM7 5.899l-3 2-2.599-1.732 5.599-3.732v3.465zM3.099 8.5l-2.099 1.399v-2.798l2.099 1.399zM4 9.101l3 2v3.465l-5.599-3.732 2.599-1.732zM8 11.101l3-2 2.599 1.732-5.599 3.732v-3.465zM11.901 8.5l2.099-1.399v2.798l-2.099-1.399z"/>

</symbol>
<symbol id="cogs" viewBox="0 0 16 16">
<path d="M5.683 11.282l0.645-0.903-0.707-0.707-0.903 0.645c-0.168-0.094-0.347-0.168-0.535-0.222l-0.183-1.095h-1l-0.183 1.095c-0.188 0.053-0.368 0.128-0.535 0.222l-0.903-0.645-0.707 0.707 0.645 0.903c-0.094 0.168-0.168 0.347-0.222 0.535l-1.095 0.183v1l1.095 0.183c0.053 0.188 0.128 0.368 0.222 0.535l-0.645 0.903 0.707 0.707 0.903-0.645c0.168 0.094 0.347 0.168 0.535 0.222l0.183 1.095h1l0.183-1.095c0.188-0.053 0.368-0.128 0.535-0.222l0.903 0.645 0.707-0.707-0.645-0.903c0.094-0.168 0.168-0.347 0.222-0.535l1.095-0.182v-1l-1.095-0.183c-0.053-0.188-0.128-0.368-0.222-0.535zM3.5 13.5c-0.552 0-1-0.448-1-1s0.448-1 1-1 1 0.448 1 1-0.448 1-1 1zM16 6v-1l-1.053-0.191c-0.019-0.126-0.044-0.25-0.074-0.372l0.899-0.58-0.383-0.924-1.046 0.226c-0.066-0.108-0.136-0.213-0.211-0.315l0.609-0.88-0.707-0.707-0.88 0.609c-0.102-0.074-0.207-0.145-0.315-0.211l0.226-1.046-0.924-0.383-0.58 0.899c-0.122-0.030-0.246-0.054-0.372-0.074l-0.191-1.053h-1l-0.191 1.053c-0.126 0.019-0.25 0.044-0.372 0.074l-0.58-0.899-0.924 0.383 0.226 1.046c-0.108 0.066-0.213 0.136-0.315 0.211l-0.88-0.609-0.707 0.707 0.609 0.88c-0.074 0.102-0.145 0.207-0.211 0.315l-1.046-0.226-0.383 0.924 0.899 0.58c-0.030 0.122-0.054 0.246-0.074 0.372l-1.053 0.191v1l1.053 0.191c0.019 0.126 0.044 0.25 0.074 0.372l-0.899 0.58 0.383 0.924 1.046-0.226c0.066 0.108 0.136 0.213 0.211 0.315l-0.609 0.88 0.707 0.707 0.88-0.609c0.102 0.074 0.207 0.145 0.315 0.211l-0.226 1.046 0.924 0.383 0.58-0.899c0.122 0.030 0.246 0.054 0.372 0.074l0.191 1.053h1l0.191-1.053c0.126-0.019 0.25-0.044 0.372-0.074l0.58 0.899 0.924-0.383-0.226-1.046c0.108-0.066 0.213-0.136 0.315-0.211l0.88 0.609 0.707-0.707-0.609-0.88c0.074-0.102 0.145-0.207 0.211-0.315l1.046 0.226 0.383-0.924-0.899-0.58c0.030-0.122 0.054-0.246 0.074-0.372l1.053-0.191zM10.5 7.675c-1.201 0-2.175-0.974-2.175-2.175s0.974-2.175 2.175-2.175 2.175 0.974 2.175 2.175c0 1.201-0.974 2.175-2.175 2.175z"/>

</symbol>
<symbol id="comapss" viewBox="0 0 16 16">
<path d="M8.5 16c-0.036 0-0.072-0.004-0.108-0.012-0.229-0.051-0.392-0.254-0.392-0.488v-7.5h-7.5c-0.234 0-0.437-0.163-0.488-0.392s0.064-0.462 0.277-0.561l15-7c0.191-0.089 0.416-0.049 0.565 0.1s0.188 0.374 0.1 0.565l-7 15c-0.083 0.179-0.262 0.289-0.453 0.289zM2.754 7h5.746c0.276 0 0.5 0.224 0.5 0.5v5.746l5.465-11.712-11.712 5.465z"/>

</symbol>
<symbol id="cross" viewBox="0 0 20 20">
<path d="M10.707 10.5l5.646-5.646c0.195-0.195 0.195-0.512 0-0.707s-0.512-0.195-0.707 0l-5.646 5.646-5.646-5.646c-0.195-0.195-0.512-0.195-0.707 0s-0.195 0.512 0 0.707l5.646 5.646-5.646 5.646c-0.195 0.195-0.195 0.512 0 0.707 0.098 0.098 0.226 0.146 0.354 0.146s0.256-0.049 0.354-0.146l5.646-5.646 5.646 5.646c0.098 0.098 0.226 0.146 0.354 0.146s0.256-0.049 0.354-0.146c0.195-0.195 0.195-0.512 0-0.707l-5.646-5.646z"/>

</symbol>
<symbol id="download" viewBox="0 0 16 16">
<path d="M8 9l4-4h-3v-4h-2v4h-3zM11.636 7.364l-1.121 1.121 4.064 1.515-6.579 2.453-6.579-2.453 4.064-1.515-1.121-1.121-4.364 1.636v4l8 3 8-3v-4z"/>

</symbol>
<symbol id="envelope" viewBox="0 0 20 20">
<path d="M17.5 6h-16c-0.827 0-1.5 0.673-1.5 1.5v9c0 0.827 0.673 1.5 1.5 1.5h16c0.827 0 1.5-0.673 1.5-1.5v-9c0-0.827-0.673-1.5-1.5-1.5zM17.5 7c0.030 0 0.058 0.003 0.087 0.008l-7.532 5.021c-0.29 0.193-0.819 0.193-1.109 0l-7.532-5.021c0.028-0.005 0.057-0.008 0.087-0.008h16zM17.5 17h-16c-0.276 0-0.5-0.224-0.5-0.5v-8.566l7.391 4.927c0.311 0.207 0.71 0.311 1.109 0.311s0.798-0.104 1.109-0.311l7.391-4.927v8.566c0 0.276-0.224 0.5-0.5 0.5z"/>

</symbol>
<symbol id="gallery" viewBox="0 0 18 16">
<path d="M17 2h-1v-1c0-0.55-0.45-1-1-1h-14c-0.55 0-1 0.45-1 1v12c0 0.55 0.45 1 1 1h1v1c0 0.55 0.45 1 1 1h14c0.55 0 1-0.45 1-1v-12c0-0.55-0.45-1-1-1zM2 3v10h-0.998c-0.001-0.001-0.001-0.001-0.002-0.002v-11.996c0.001-0.001 0.001-0.001 0.002-0.002h13.996c0.001 0.001 0.001 0.001 0.002 0.002v0.998h-12c-0.55 0-1 0.45-1 1v0zM17 14.998c-0.001 0.001-0.001 0.001-0.002 0.002h-13.996c-0.001-0.001-0.001-0.001-0.002-0.002v-11.996c0.001-0.001 0.001-0.001 0.002-0.002h13.996c0.001 0.001 0.001 0.001 0.002 0.002v11.996z"/>
<path d="M15 5.5c0 0.828-0.672 1.5-1.5 1.5s-1.5-0.672-1.5-1.5 0.672-1.5 1.5-1.5 1.5 0.672 1.5 1.5z"/>
<path d="M16 14h-12v-2l3.5-6 4 5h1l3.5-3z"/>

</symbol>
<symbol id="github" viewBox="0 0 16 16">
<path d="M8 0.198c-4.418 0-8 3.582-8 8 0 3.535 2.292 6.533 5.471 7.591 0.4 0.074 0.547-0.174 0.547-0.385 0-0.191-0.008-0.821-0.011-1.489-2.226 0.484-2.695-0.944-2.695-0.944-0.364-0.925-0.888-1.171-0.888-1.171-0.726-0.497 0.055-0.486 0.055-0.486 0.803 0.056 1.226 0.824 1.226 0.824 0.714 1.223 1.872 0.869 2.328 0.665 0.072-0.517 0.279-0.87 0.508-1.070-1.777-0.202-3.645-0.888-3.645-3.954 0-0.873 0.313-1.587 0.824-2.147-0.083-0.202-0.357-1.015 0.077-2.117 0 0 0.672-0.215 2.201 0.82 0.638-0.177 1.322-0.266 2.002-0.269 0.68 0.003 1.365 0.092 2.004 0.269 1.527-1.035 2.198-0.82 2.198-0.82 0.435 1.102 0.162 1.916 0.079 2.117 0.513 0.56 0.823 1.274 0.823 2.147 0 3.073-1.872 3.749-3.653 3.947 0.287 0.248 0.543 0.735 0.543 1.481 0 1.070-0.009 1.932-0.009 2.195 0 0.213 0.144 0.462 0.55 0.384 3.177-1.059 5.466-4.057 5.466-7.59 0-4.418-3.582-8-8-8z"/>

</symbol>
<symbol id="graduation-hat" viewBox="0 0 20 20">
<path d="M18.658 7.026l-9-3c-0.103-0.034-0.214-0.034-0.316 0l-9 3c-0.204 0.068-0.342 0.259-0.342 0.474s0.138 0.406 0.342 0.474l2.658 0.886v2.64c0 0.133 0.053 0.26 0.146 0.354 0.088 0.088 2.194 2.146 6.354 2.146 1.513 0 2.924-0.272 4.195-0.809 0.254-0.107 0.373-0.401 0.266-0.655s-0.401-0.373-0.655-0.266c-1.147 0.485-2.427 0.73-3.805 0.73-1.945 0-3.376-0.504-4.234-0.926-0.635-0.313-1.060-0.629-1.266-0.799v-2.081l5.342 1.781c0.051 0.017 0.105 0.026 0.158 0.026s0.107-0.009 0.158-0.026l5.342-1.781v0.892c-0.582 0.206-1 0.762-1 1.414 0 0.611 0.367 1.137 0.892 1.371l-0.877 3.508c-0.037 0.149-0.004 0.308 0.091 0.429s0.24 0.192 0.394 0.192h2c0.154 0 0.299-0.071 0.394-0.192s0.128-0.28 0.091-0.429l-0.877-3.508c0.525-0.234 0.892-0.76 0.892-1.371 0-0.652-0.418-1.208-1-1.414v-1.226l2.658-0.886c0.204-0.068 0.342-0.259 0.342-0.474s-0.138-0.406-0.342-0.474zM15.5 11c0.276 0 0.5 0.224 0.5 0.5s-0.224 0.5-0.5 0.5-0.5-0.224-0.5-0.5 0.224-0.5 0.5-0.5zM15.14 16l0.36-1.438 0.36 1.438h-0.719zM15.46 7.986l-5.877-0.98c-0.273-0.045-0.53 0.139-0.575 0.411s0.139 0.53 0.411 0.575l4.014 0.669-3.932 1.311-7.419-2.473 7.419-2.473 7.419 2.473-1.459 0.486z"/>

</symbol>
<symbol id="half-star" viewBox="0 0 16 16">
<path d="M16 6.204l-5.528-0.803-2.472-5.009-2.472 5.009-5.528 0.803 4 3.899-0.944 5.505 4.944-2.599 4.944 2.599-0.944-5.505 4-3.899zM8 11.773l-0.015 0.008 0.015-8.918 1.746 3.537 3.904 0.567-2.825 2.753 0.667 3.888-3.492-1.836z"/>

</symbol>
<symbol id="heart" viewBox="0 0 16 16">
<path d="M11.8 1c-1.682 0-3.129 1.368-3.799 2.797-0.671-1.429-2.118-2.797-3.8-2.797-2.318 0-4.2 1.882-4.2 4.2 0 4.716 4.758 5.953 8 10.616 3.065-4.634 8-6.050 8-10.616 0-2.319-1.882-4.2-4.2-4.2z"/>

</symbol>
<symbol id="home" viewBox="0 0 16 16">
<path d="M16 9.226l-8-6.21-8 6.21v-2.532l8-6.21 8 6.21zM14 9v6h-4v-4h-4v4h-4v-6l6-4.5z"/>

</symbol>
<symbol id="info" viewBox="0 0 16 16">
<path d="M7 4.75c0-0.412 0.338-0.75 0.75-0.75h0.5c0.412 0 0.75 0.338 0.75 0.75v0.5c0 0.412-0.338 0.75-0.75 0.75h-0.5c-0.412 0-0.75-0.338-0.75-0.75v-0.5z"/>
<path d="M10 12h-4v-1h1v-3h-1v-1h3v4h1z"/>
<path d="M8 0c-4.418 0-8 3.582-8 8s3.582 8 8 8 8-3.582 8-8-3.582-8-8-8zM8 14.5c-3.59 0-6.5-2.91-6.5-6.5s2.91-6.5 6.5-6.5 6.5 2.91 6.5 6.5-2.91 6.5-6.5 6.5z"/>

</symbol>
<symbol id="linkedin" viewBox="0 0 16 16">
<path d="M14.5 0h-13c-0.825 0-1.5 0.675-1.5 1.5v13c0 0.825 0.675 1.5 1.5 1.5h13c0.825 0 1.5-0.675 1.5-1.5v-13c0-0.825-0.675-1.5-1.5-1.5zM6 13h-2v-7h2v7zM5 5c-0.553 0-1-0.447-1-1s0.447-1 1-1c0.553 0 1 0.447 1 1s-0.447 1-1 1zM13 13h-2v-4c0-0.553-0.447-1-1-1s-1 0.447-1 1v4h-2v-7h2v1.241c0.412-0.566 1.044-1.241 1.75-1.241 1.244 0 2.25 1.119 2.25 2.5v4.5z"/>

</symbol>
<symbol id="npm" viewBox="0 0 16 16">
<path d="M0 0v16h16v-16h-16zM13 13h-2v-8h-3v8h-5v-10h10v10z"/>

</symbol>
<symbol id="pacman" viewBox="0 0 16 16">
<path d="M15.074 2.794c-1.467-1.71-3.644-2.794-6.074-2.794-4.418 0-8 3.582-8 8s3.582 8 8 8c2.43 0 4.607-1.084 6.074-2.794l-5.074-5.206 5.074-5.206zM11 1.884c0.616 0 1.116 0.499 1.116 1.116s-0.499 1.116-1.116 1.116-1.116-0.499-1.116-1.116c0-0.616 0.499-1.116 1.116-1.116z"/>

</symbol>
<symbol id="pencil" viewBox="0 0 16 16">
<path d="M13.5 0c1.381 0 2.5 1.119 2.5 2.5 0 0.563-0.186 1.082-0.5 1.5l-1 1-3.5-3.5 1-1c0.418-0.314 0.937-0.5 1.5-0.5zM1 11.5l-1 4.5 4.5-1 9.25-9.25-3.5-3.5-9.25 9.25zM11.181 5.681l-7 7-0.862-0.862 7-7 0.862 0.862z"/>

</symbol>
<symbol id="phone" viewBox="0 0 16 16">
<path d="M11 10c-1 1-1 2-2 2s-2-1-3-2-2-2-2-3 1-1 2-2-2-4-3-4-3 3-3 3c0 2 2.055 6.055 4 8s6 4 8 4c0 0 3-2 3-3s-3-4-4-3z"/>

</symbol>
<symbol id="play" viewBox="0 0 16 16">
<path d="M8 0c-4.418 0-8 3.582-8 8s3.582 8 8 8 8-3.582 8-8-3.582-8-8-8zM8 14.5c-3.59 0-6.5-2.91-6.5-6.5s2.91-6.5 6.5-6.5 6.5 2.91 6.5 6.5-2.91 6.5-6.5 6.5zM6 4.5l6 3.5-6 3.5z"/>

</symbol>
<symbol id="rocket" viewBox="0 0 20 20">
<path d="M13.5 9c-1.378 0-2.5-1.122-2.5-2.5s1.122-2.5 2.5-2.5 2.5 1.122 2.5 2.5-1.122 2.5-2.5 2.5zM13.5 5c-0.827 0-1.5 0.673-1.5 1.5s0.673 1.5 1.5 1.5 1.5-0.673 1.5-1.5-0.673-1.5-1.5-1.5z"/>
<path d="M0.5 20c-0.13 0-0.258-0.051-0.354-0.146-0.137-0.137-0.183-0.342-0.116-0.524 1.539-4.231 3.157-6.377 4.808-6.377 0.545 0 1.054 0.234 1.515 0.694 0.728 0.728 0.754 1.453 0.648 1.933-0.334 1.508-2.464 2.985-6.33 4.391-0.056 0.020-0.114 0.030-0.171 0.030zM4.839 13.952c-0.495 0-1.078 0.434-1.685 1.255-0.597 0.807-1.197 1.957-1.788 3.427 1.335-0.537 2.408-1.082 3.199-1.625 1.067-0.733 1.383-1.3 1.46-1.646s-0.047-0.677-0.379-1.009c-0.27-0.27-0.534-0.401-0.808-0.401z"/>
<path d="M19.5 0c-2.595 0-4.907 0.44-6.874 1.308-1.621 0.716-3.009 1.72-4.126 2.986-0.208 0.236-0.401 0.475-0.58 0.715-0.862 0.057-1.744 0.4-2.624 1.020-0.745 0.524-1.493 1.25-2.225 2.157-1.23 1.524-1.986 3.027-2.018 3.090-0.109 0.219-0.044 0.485 0.154 0.628 0.088 0.064 0.191 0.095 0.293 0.095 0.128 0 0.256-0.049 0.353-0.145 0.005-0.005 0.483-0.475 1.298-0.936 0.672-0.38 1.708-0.827 2.961-0.906 0.317 0.811 1.224 1.781 1.659 2.216s1.405 1.342 2.216 1.659c-0.079 1.253-0.526 2.289-0.906 2.961-0.462 0.816-0.931 1.293-0.935 1.297-0.173 0.173-0.195 0.447-0.052 0.646 0.097 0.134 0.249 0.208 0.406 0.208 0.076 0 0.152-0.017 0.223-0.053 0.063-0.032 1.566-0.788 3.090-2.018 0.907-0.732 1.633-1.48 2.157-2.225 0.62-0.881 0.962-1.762 1.020-2.624 0.239-0.178 0.478-0.371 0.715-0.58 1.266-1.117 2.27-2.505 2.986-4.126 0.868-1.966 1.308-4.279 1.308-6.874v-0.5h-0.5zM3.107 9.808c0.953-1.383 2.41-3.098 4.052-3.637-0.649 1.137-0.985 2.181-1.106 2.843-1.159 0.071-2.158 0.408-2.946 0.794zM10.193 16.89c0.386-0.788 0.723-1.786 0.793-2.944 0.661-0.121 1.706-0.457 2.842-1.105-0.54 1.639-2.254 3.096-3.636 4.049zM15.044 10.75c-2.080 1.835-4.234 2.25-4.544 2.25-0.002 0-0.207-0.004-0.759-0.393-0.385-0.271-0.834-0.657-1.262-1.085s-0.814-0.877-1.085-1.262c-0.389-0.552-0.393-0.757-0.393-0.759 0-0.31 0.415-2.464 2.25-4.544 2.196-2.488 5.557-3.849 9.744-3.95-0.101 4.187-1.461 7.548-3.95 9.744z"/>

</symbol>
<symbol id="spinner" viewBox="0 0 16 16">
<path d="M6 2c0-1.105 0.895-2 2-2s2 0.895 2 2c0 1.105-0.895 2-2 2s-2-0.895-2-2zM10.243 3.757c0-1.105 0.895-2 2-2s2 0.895 2 2c0 1.105-0.895 2-2 2s-2-0.895-2-2zM13 8c0-0.552 0.448-1 1-1s1 0.448 1 1c0 0.552-0.448 1-1 1s-1-0.448-1-1zM11.243 12.243c0-0.552 0.448-1 1-1s1 0.448 1 1c0 0.552-0.448 1-1 1s-1-0.448-1-1zM7 14c0 0 0 0 0 0 0-0.552 0.448-1 1-1s1 0.448 1 1c0 0 0 0 0 0 0 0.552-0.448 1-1 1s-1-0.448-1-1zM2.757 12.243c0 0 0 0 0 0 0-0.552 0.448-1 1-1s1 0.448 1 1c0 0 0 0 0 0 0 0.552-0.448 1-1 1s-1-0.448-1-1zM2.257 3.757c0 0 0 0 0 0 0-0.828 0.672-1.5 1.5-1.5s1.5 0.672 1.5 1.5c0 0 0 0 0 0 0 0.828-0.672 1.5-1.5 1.5s-1.5-0.672-1.5-1.5zM0.875 8c0-0.621 0.504-1.125 1.125-1.125s1.125 0.504 1.125 1.125c0 0.621-0.504 1.125-1.125 1.125s-1.125-0.504-1.125-1.125z"/>

</symbol>
<symbol id="star-empty" viewBox="0 0 16 16">
<path d="M16 6.204l-5.528-0.803-2.472-5.009-2.472 5.009-5.528 0.803 4 3.899-0.944 5.505 4.944-2.599 4.944 2.599-0.944-5.505 4-3.899zM8 11.773l-3.492 1.836 0.667-3.888-2.825-2.753 3.904-0.567 1.746-3.537 1.746 3.537 3.904 0.567-2.825 2.753 0.667 3.888-3.492-1.836z"/>

</symbol>
<symbol id="star" viewBox="0 0 16 16">
<path d="M16 6.204l-5.528-0.803-2.472-5.009-2.472 5.009-5.528 0.803 4 3.899-0.944 5.505 4.944-2.599 4.944 2.599-0.944-5.505 4-3.899z"/>

</symbol>
<symbol id="upload" viewBox="0 0 16 16">
<path d="M0 14h16v1h-16zM16 12v1h-16v-1l2-4h4v2h4v-2h4zM3.5 5l4.5-4.5 4.5 4.5h-3.5v4h-2v-4z"/>

</symbol>
<symbol id="user" viewBox="0 0 16 16">
<path d="M9 11.041v-0.825c1.102-0.621 2-2.168 2-3.716 0-2.485 0-4.5-3-4.5s-3 2.015-3 4.5c0 1.548 0.898 3.095 2 3.716v0.825c-3.392 0.277-6 1.944-6 3.959h14c0-2.015-2.608-3.682-6-3.959z"/>

</symbol>
<symbol id="warning" viewBox="0 0 20 20">
<path d="M18.5 19h-18c-0.178 0-0.342-0.094-0.432-0.248s-0.091-0.343-0.004-0.498l9-16c0.089-0.157 0.255-0.255 0.436-0.255s0.347 0.097 0.436 0.255l9 16c0.087 0.155 0.085 0.344-0.004 0.498s-0.254 0.248-0.432 0.248zM1.355 18h16.29l-8.145-14.48-8.145 14.48z"/>
<path d="M9.5 14c-0.276 0-0.5-0.224-0.5-0.5v-5c0-0.276 0.224-0.5 0.5-0.5s0.5 0.224 0.5 0.5v5c0 0.276-0.224 0.5-0.5 0.5z"/>
<path d="M9.5 17c-0.276 0-0.5-0.224-0.5-0.5v-1c0-0.276 0.224-0.5 0.5-0.5s0.5 0.224 0.5 0.5v1c0 0.276-0.224 0.5-0.5 0.5z"/>

</symbol>
<symbol id="wordpress" viewBox="0 0 16 16">
<path d="M2 8c0 2.313 1.38 4.312 3.382 5.259l-2.862-7.637c-0.333 0.727-0.52 1.531-0.52 2.378zM12.050 7.705c0-0.722-0.266-1.222-0.495-1.612-0.304-0.482-0.589-0.889-0.589-1.371 0-0.537 0.418-1.037 1.008-1.037 0.027 0 0.052 0.003 0.078 0.005-1.067-0.953-2.49-1.534-4.052-1.534-2.096 0-3.94 1.048-5.013 2.634 0.141 0.004 0.274 0.007 0.386 0.007 0.627 0 1.599-0.074 1.599-0.074 0.323-0.018 0.361 0.444 0.038 0.482 0 0-0.325 0.037-0.687 0.055l2.185 6.33 1.313-3.835-0.935-2.495c-0.323-0.019-0.629-0.055-0.629-0.055-0.323-0.019-0.285-0.5 0.038-0.482 0 0 0.991 0.074 1.58 0.074 0.627 0 1.599-0.074 1.599-0.074 0.323-0.018 0.362 0.444 0.038 0.482 0 0-0.326 0.037-0.687 0.055l2.168 6.282 0.599-1.947c0.259-0.809 0.457-1.389 0.457-1.889zM8.105 8.511l-1.8 5.095c0.538 0.154 1.106 0.238 1.695 0.238 0.699 0 1.369-0.117 1.992-0.331-0.016-0.025-0.031-0.052-0.043-0.081l-1.844-4.921zM13.265 5.196c0.026 0.186 0.040 0.386 0.040 0.601 0 0.593-0.114 1.259-0.456 2.093l-1.833 5.16c1.784-1.013 2.983-2.895 2.983-5.051 0-1.016-0.267-1.971-0.735-2.803zM8 0c-4.418 0-8 3.582-8 8s3.582 8 8 8 8-3.582 8-8-3.582-8-8-8zM8 15c-3.866 0-7-3.134-7-7s3.134-7 7-7 7 3.134 7 7-3.134 7-7 7z"/>

</symbol></svg>
